<?xml version="1.0" standalone="no"?><!DOCTYPE svg PUBLIC "-//W3C//DTD SVG 1.1//EN" "http://www.w3.org/Graphics/SVG/1.1/DTD/svg11.dtd"><svg t="1562675120536" class="icon" viewBox="0 0 1024 1024" version="1.1" xmlns="http://www.w3.org/2000/svg" p-id="3485" xmlns:xlink="http://www.w3.org/1999/xlink" width="200" height="200"><defs><style type="text/css"></style></defs><path d="M512 298.666667a213.333333 213.333333 0 0 0-128 384v170.666666a85.333333 85.333333 0 0 0 85.333333 85.333334h85.333334a85.333333 85.333333 0 0 0 85.333333-85.333334v-170.666666a213.333333 213.333333 0 0 0-128-384z m64 323.84a42.666667 42.666667 0 0 0-21.333333 37.12V853.333333h-85.333334v-193.706666a42.666667 42.666667 0 0 0-21.333333-37.12A128 128 0 0 1 384 512a128 128 0 0 1 256 0 128 128 0 0 1-64 110.506667zM512 256a42.666667 42.666667 0 0 0 42.666667-42.666667V128a42.666667 42.666667 0 0 0-85.333334 0v85.333333a42.666667 42.666667 0 0 0 42.666667 42.666667zM896 469.333333h-85.333333a42.666667 42.666667 0 0 0 0 85.333334h85.333333a42.666667 42.666667 0 0 0 0-85.333334zM213.333333 469.333333H128a42.666667 42.666667 0 0 0 0 85.333334h85.333333a42.666667 42.666667 0 0 0 0-85.333334zM326.826667 273.92L265.386667 213.333333a42.666667 42.666667 0 0 0-59.306667 62.72l61.44 59.306667a42.666667 42.666667 0 0 0 31.146667 11.946667 42.666667 42.666667 0 0 0 30.72-13.226667 42.666667 42.666667 0 0 0-2.56-60.16zM818.773333 215.466667a42.666667 42.666667 0 0 0-60.16 0l-61.44 58.453333a42.666667 42.666667 0 0 0 0 60.16 42.666667 42.666667 0 0 0 30.72 13.226667 42.666667 42.666667 0 0 0 29.44-11.946667l61.44-59.306667a42.666667 42.666667 0 0 0 0-60.586666z" p-id="3486"></path></svg>